<?xml version="1.0" encoding="utf-8"?>
<!-- Generator: Adobe Illustrator 27.7.0, SVG Export Plug-In . SVG Version: 6.00 Build 0)  -->
<svg version="1.1" id="Layer_1" xmlns="http://www.w3.org/2000/svg" xmlns:xlink="http://www.w3.org/1999/xlink" x="0px" y="0px"
	 viewBox="0 0 170.4117584 30" style="enable-background:new 0 0 170.4117584 30;" xml:space="preserve">
<style type="text/css">
	.st0{fill:#FFA23C;}
	.st1{fill:#36134A;}
</style>
<path class="st0" d="M18.2000008,21.5767002c-0.7000008,0.1943989-1.6000004,0.3887997-2.500001,0.3887997
	c-0.8999996,0-1.6999998-0.0972004-2.5-0.3887997c-0.5-0.0972004-0.8000002,0.3887997-0.5,0.7775002
	c0.6999998,0.8747997,1.8000002,1.3606987,3,1.3606987S18,23.1317997,18.7000008,22.3542004
	C19,21.9654999,18.6000004,21.3822994,18.2000008,21.5767002z"/>
<path class="st0" d="M4.4000001,18.8554001l1.4000001,0.485899v-1.3606987L6.6999998,18.3694l-1.5999999-2.5270004L3.5,17.1058998
	l0.9000001,0.2915993V18.8554001z"/>
<path class="st0" d="M3.5,20.1189003l3.1999998,1.2635002v-0.7776012L3.5,19.3412991V20.1189003z"/>
<path class="st0" d="M15.6999998,0L0,6.3175201V22.9375l15.6999998,6.3174992L31.3999996,22.9375V6.2203302L15.6999998,0z
	 M27.2999992,6.9006701l-4.5,1.8466597L11.1999998,4.0820899l4.5-1.8466599L27.2999992,6.9006701z M21.2999992,9.3304901
	l-5.5999994,2.2354097L4.0999999,6.9006701l5.5999999-2.2354302L21.2999992,9.3304901z M15.6999998,26.7280006L2.2,21.2852001
	V8.5529499l13.5,5.44275l13.500001-5.44275v12.8294506L15.6999998,26.7280006z"/>
<path class="st1" d="M63.0998993,15.1622h-8.7999992c0.0999985,0.7776003,0.2999992,1.3606997,0.7999992,1.7494993
	c0.4000015,0.3888016,1,0.5831013,1.6000023,0.5831013c1,0,1.5999985-0.3887005,2-1.1662998h4.0999985
	c-0.2000008,0.7775993-0.5999985,1.5550995-1.0999985,2.1382999c-0.6000023,0.6802998-1.2000008,1.1662998-2.1000023,1.5550995
	c-0.8999977,0.3887005-1.7999992,0.5830994-2.7999992,0.5830994c-1.2000008,0-2.2999992-0.2915993-3.2999992-0.7775002
	c-1-0.4860001-1.7000008-1.2635002-2.2999992-2.2355003c-0.5-0.971899-0.8000031-2.0409994-0.8000031-3.3044987
	s0.3000031-2.4298,0.8000031-3.3046007c0.5-0.9719,1.2999992-1.6522293,2.2999992-2.2353897
	c1-0.48596,2.0999985-0.7775397,3.2999992-0.7775397s2.2999992,0.2915797,3.2999992,0.7775397
	s1.7000008,1.1663103,2.2000008,2.1381903c0.5,0.9720001,0.7999992,2.0410995,0.7999992,3.2073994
	C63.1999016,14.3846998,63.1999016,14.7735004,63.0998993,15.1622z M59.1999016,13.0240002
	c0-0.6803999-0.2000008-1.1662998-0.7000008-1.5551004c-0.5-0.3887997-1-0.5831995-1.7000008-0.5831995
	c-0.5999985,0-1.2000008,0.1943998-1.5999985,0.5831995c-0.4000015,0.3888006-0.7000008,0.8747005-0.8000031,1.5551004H59.1999016z"
	/>
<path class="st1" d="M65.3000031,10.8858004c0.5-0.9719505,1.2999954-1.6523008,2.1999969-2.2354603
	c1-0.48596,2.0999985-0.7775402,3.3000031-0.7775402c1.5999985,0,2.8999939,0.3887701,4,1.1663103
	c1.0999985,0.7775497,1.7999954,1.9438896,2.0999985,3.4017897h-4.0999985c-0.3000031-0.9720001-1-1.4579-2-1.4579
	c-0.7000046,0-1.3000031,0.2915001-1.7000046,0.7775002C68.6999969,12.3437004,68.5,13.0240002,68.5,14.0930996
	s0.1999969,1.7495003,0.5999985,2.3325996c0.4000015,0.5832005,1,0.7776012,1.7000046,0.7776012c1,0,1.6999969-0.4860001,2-1.4579
	h4.0999985c-0.3000031,1.4579-1,2.5269995-2.0999985,3.4017c-1.1000061,0.7775993-2.4000015,1.2635002-4,1.2635002
	c-1.2000046,0-2.3000031-0.2915001-3.3000031-0.7775002s-1.6999969-1.2635002-2.1999969-2.2354012
	C64.8000031,16.4256992,64.5,15.3565998,64.5,14.0930996C64.5,12.9267998,64.6999969,11.8577003,65.3000031,10.8858004z"/>
<path class="st1" d="M90.9999008,8.0671396v12.343461h-3.9000015v-1.6522999
	c-0.4000015,0.5831985-0.9000015,0.971899-1.5999985,1.2634983c-0.7000046,0.2916012-1.4000015,0.4860001-2.2000046,0.4860001
	c-1,0-1.7999954-0.1943989-2.5999985-0.5831985c-0.6999969-0.3887005-1.2999954-1.0691013-1.6999969-1.8466015
	c-0.4000015-0.7775993-0.5999985-1.7494984-0.5999985-2.8185987V8.0671396h3.8999939v6.7062607
	c0,0.7775993,0.2000046,1.4579,0.7000046,1.9439001c0.4000015,0.485899,1,0.6802998,1.7999954,0.6802998
	c0.8000031,0,1.4000015-0.1944008,1.8000031-0.6802998c0.4000015-0.4860001,0.6999969-1.0691004,0.6999969-1.9439001V8.0671396
	H90.9999008z"/>
<path class="st1" d="M99.3998032,8.5531301c0.7001953-0.3887701,1.4001999-0.5831599,2.3001938-0.5831599v3.9849296h-1.0999985
	c-1.0001984,0-1.7001953,0.1943998-2.2001953,0.5831003c-0.5,0.3887997-0.7000046,1.0690994-0.7000046,2.1382999v5.7343006
	h-3.9000015V8.0671597h3.9000015v2.0410404C98.0998001,9.4278603,98.6997986,8.9419003,99.3998032,8.5531301z"/>
<path class="st1" d="M115.4000015,15.1622h-8.8000031c0.0999985,0.7776003,0.3000031,1.3606997,0.8000031,1.7494993
	c0.4000015,0.3888016,1,0.5831013,1.5999985,0.5831013c1,0,1.5999985-0.3887005,2-1.1662998h4.0999985
	C114.9000015,17.1061001,114.5,17.8836002,114,18.4668007c-0.5999985,0.6802998-1.1999969,1.1662998-2.0999985,1.5550995
	c-0.8000031,0.3887005-1.8000031,0.5830994-2.8000031,0.5830994c-1.1999969,0-2.2999954-0.2915993-3.2999954-0.7775002
	c-1-0.4860001-1.7000046-1.2635002-2.3000031-2.2355003c-0.5-0.971899-0.8000031-2.0409994-0.8000031-3.3044987
	S103,11.8577003,103.5,10.9828997c0.5-0.9719,1.3000031-1.6522293,2.3000031-2.2353897
	c1-0.48596,2.0999985-0.7775397,3.2999954-0.7775397c1.2000046,0,2.3000031,0.2915797,3.3000031,0.7775397
	s1.6999969,1.1663103,2.1999969,2.1381903c0.5,0.9720001,0.8000031,2.0410995,0.8000031,3.2073994
	C115.4000015,14.3846998,115.4000015,14.7735004,115.4000015,15.1622z M111.5,13.0240002
	c0-0.6803999-0.1999969-1.1662998-0.6999969-1.5551004c-0.5-0.3887997-1-0.5831995-1.7000046-0.5831995
	c-0.5999985,0-1.1999969,0.1943998-1.5999985,0.5831995c-0.4000015,0.3888006-0.6999969,0.8747005-0.8000031,1.5551004H111.5z"/>
<path class="st1" d="M140.3000031,9.3305502c0.8999939,0.9719496,1.3000031,2.2354498,1.3000031,3.8877497v7.1921997h-3.9000092
	v-6.7062998c0-0.7775002-0.1999969-1.4579-0.6999969-1.9438c-0.3999939-0.4860001-1-0.6803999-1.8000031-0.6803999
	c-0.6999969,0-1.3000031,0.1943998-1.8000031,0.6803999c-0.3999939,0.4858999-0.6999969,1.0691004-0.6999969,1.9438v6.7062998
	h-3.8999939V4.08215h3.8999939v5.6371703c0.4000092-0.5831499,0.9000092-0.97192,1.6000061-1.2635002
	s1.3999939-0.48596,2.3000031-0.48596C138.1999969,7.9698601,139.3999939,8.4558201,140.3000031,9.3305502z"/>
<path class="st1" d="M148.1999969,8.0671396v12.343461h-3.8999939V8.0671396H148.1999969z"/>
<path class="st1" d="M156.3000031,8.4559298C157,8.0671597,157.6999969,7.9699702,158.6000061,7.9699702
	c1,0,2,0.2915797,2.7999878,0.7775397c0.8000031,0.48596,1.5,1.2634897,2,2.2353897
	c0.5,0.9720001,0.7000122,2.0411005,0.7000122,3.3046007s-0.2000122,2.3325996-0.7000122,3.3044987
	c-0.5,0.9720001-1.1999969,1.7495003-2,2.2355003c-0.7999878,0.4859009-1.7999878,0.7775002-2.7999878,0.7775002
	c-0.9000092,0-1.7000122-0.1943989-2.3000031-0.4860001c-0.6999969-0.3886986-1.1999969-0.7775002-1.6000061-1.3606987v7.5810986
	h-3.8999939V8.0671597h3.8999939v1.7494707C155.1000061,9.23347,155.6000061,8.74751,156.3000031,8.4559298z
	 M159.3999939,11.9548998c-0.5-0.5831995-1.1999969-0.7775993-2-0.7775993c-0.7999878,0-1.3999939,0.2915993-2,0.7775993
	c-0.5,0.5831003-0.7999878,1.2635002-0.7999878,2.2354002s0.2999878,1.6522999,0.7999878,2.2353992
	c0.5,0.5832005,1.2000122,0.7776012,2,0.7776012c0.8000031,0,1.4000092-0.2916012,2-0.8747997
	c0.5-0.5831003,0.8000031-1.2635012,0.8000031-2.2354012C160.1999969,13.3156004,160,12.5380001,159.3999939,11.9548998z"/>
<path class="st1" d="M47.3998985,13.7042999c-0.5999985-0.1943998-1.3999977-0.4860001-2.2999992-0.6803999
	c-0.7999992-0.1942997-1.3999977-0.3887005-1.7999992-0.4858999c-0.4000015-0.1943998-0.5999985-0.4860001-0.5999985-0.7776003
	c0,0,0-0.5830994,0.7999992-0.5830994h3.8999977l1.6000023-3.01299h-5.6000023
	c-4.2999992,0.0971899-4.3999977,3.2073898-4.3999977,3.2073898c-0.1000023,0.9719,0.2999992,1.9438,0.7999992,2.4298
	c0.4000015,0.4858999,1,0.8746996,1.5999985,1.0690994c0.6000023,0.1943998,1.4000015,0.4860001,2.3000031,0.6803007
	c0.7999992,0.1943998,1.5,0.3887997,1.7999992,0.5831995c0.3999977,0.1944008,0.5999985,0.3887997,0.5999985,0.7775002
	c0,0.2915993-0.0999985,0.4860001-0.3999977,0.6803989c-0.3000031,0.1944008-0.6000023,0.2916012-1.1000023,0.2916012
	s-1-0.0972004-1.2999992-0.3887997c-0.4000015-0.2916012-0.5999985-0.5832005-0.5999985-1.0691013h-3.8000031
	c0.1000023,0.7775002,0.3000031,1.5551014,0.8000031,2.1382008c0.5,0.6804008,1.1999969,1.1662998,2,1.5550995
	c0.8999977,0.3887997,1.7999992,0.5832005,2.8999977,0.5832005c1,0,1.9000015-0.1944008,2.7000008-0.4860001
	s1.4000015-0.7775993,1.7999992-1.3607006c0.4000015-0.5831985,0.6000023-1.1662998,0.6000023-1.9438992
	c0-0.8747005-0.2000008-1.5550003-0.7000008-2.0410004C48.4999008,14.2874002,47.9999008,13.8986998,47.3998985,13.7042999z"/>
<path class="st1" d="M125.1999969,13.7041998c-0.5999985-0.1943998-1.3999939-0.4860001-2.2999954-0.6803999
	C122.0999985,12.8294001,121.5,12.6350002,121.0999985,12.5379C120.6999969,12.3435001,120.5,12.0518999,120.5,11.7602997
	c0,0,0-0.5830994,0.8000031-0.5830994h3.8999939l1.6000061-3.0130205h-5.6000061
	c-4.2999954,0.0972004-4.3999939,3.2073202-4.3999939,3.2073202c-0.1000061,0.9720001,0.2999954,1.9439001,0.7999954,2.4299002
	c0.4000015,0.4858999,1,0.8746996,1.5999985,1.0690994c0.6000061,0.1944008,1.4000015,0.4858999,2.3000031,0.6803007
	c0.8000031,0.1943998,1.5,0.3887997,1.8000031,0.5832005c0.3999939,0.1943989,0.5999985,0.3886986,0.5999985,0.7775002
	c0,0.2915993-0.0999985,0.4859982-0.4000015,0.6803989S122.9000015,17.8834,122.4000015,17.8834s-1-0.0970993-1.3000031-0.3887005
	C120.6999969,17.2031002,120.5,16.9115009,120.5,16.4256001h-3.8000031C116.8000031,17.2031002,117,17.9806004,117.5,18.5638008
	c0.5,0.6802998,1.1999969,1.1662998,2,1.5550995c0.9000015,0.3887005,1.8000031,0.5830994,2.9000015,0.5830994
	c1,0,1.9000015-0.1943989,2.6999969-0.485899c0.8000031-0.2916012,1.4000015-0.7776012,1.8000031-1.3607006
	C127.3000031,18.2721996,127.5,17.6891003,127.5,16.9115009c0-0.8747005-0.1999969-1.5551014-0.6999969-2.0410013
	C126.3000031,14.2873001,125.8000031,13.8985004,125.1999969,13.7041998z"/>
<path class="st1" d="M146.1999969,6.5118699c1.2700043,0,2.3000031-1.0008297,2.3000031-2.2354198
	c0-1.2346001-1.0299988-2.2354302-2.3000031-2.2354302s-2.3000031,1.0008302-2.3000031,2.2354302
	C143.8999939,5.5110402,144.9299927,6.5118699,146.1999969,6.5118699z"/>
<path class="st0" d="M14.1998997,17.6891003c-0.0999994-1.2635002-1.0999994-2.3327007-2.3999996-2.3327007
	s-2.3999996,1.0692005-2.3999996,2.3327007s1.0999994,1.6521988,2.3999996,1.9438
	C13.2999001,20.1189003,14.1998997,19.0498009,14.1998997,17.6891003z"/>
<path class="st0" d="M17.2999992,17.6891003c0.1000004-1.2635002,1.1000004-2.3327007,2.4000015-2.3327007
	c1.2999992,0,2.3999996,1.0692005,2.3999996,2.3327007S21,19.3412991,19.7000008,19.6329002
	C18.1000004,20.1189003,17.2000008,19.0498009,17.2999992,17.6891003z"/>
<g>
	<path class="st1" d="M168.0458984,8.2958984c0.3125,0.1796875,0.5566406,0.4272461,0.7324219,0.7426758
		c0.1767578,0.3154297,0.2646484,0.6699219,0.2646484,1.0629883c0,0.3935547-0.0878906,0.7495117-0.2646484,1.0678711
		c-0.1757812,0.3188477-0.4199219,0.5683594-0.7324219,0.7480469c-0.3115234,0.1796875-0.6640625,0.2695312-1.0576172,0.2695312
		c-0.4003906,0-0.7558594-0.0898438-1.0683594-0.2695312c-0.3115234-0.1796875-0.5556641-0.4291992-0.7324219-0.7480469
		c-0.1757812-0.3183594-0.2636719-0.6743164-0.2636719-1.0678711c0-0.3930664,0.0878906-0.7475586,0.2636719-1.0629883
		c0.1767578-0.3154297,0.4208984-0.5629883,0.7324219-0.7426758c0.3125-0.1796875,0.6679688-0.2695312,1.0683594-0.2695312
		C167.3818359,8.0263672,167.734375,8.1162109,168.0458984,8.2958984z M168.1738281,11.3120117
		c0.3017578-0.3120117,0.4521484-0.715332,0.4521484-1.2104492s-0.1503906-0.8984375-0.4521484-1.2104492
		s-0.6972656-0.4677734-1.1855469-0.4677734c-0.4951172,0-0.8896484,0.1557617-1.1845703,0.4677734
		s-0.4423828,0.715332-0.4423828,1.2104492S165.5087891,11,165.8037109,11.3120117s0.6894531,0.4677734,1.1845703,0.4677734
		C167.4765625,11.7797852,167.8720703,11.6240234,168.1738281,11.3120117z M167.7763672,10.0864258
		c-0.0839844,0.1118164-0.2011719,0.1914062-0.3505859,0.2387695l0.5693359,0.8442383l-0.640625,0.0102539l-0.4882812-0.8134766
		h-0.1728516v0.8134766h-0.5292969V8.9926758h0.9765625c0.2304688,0,0.4160156,0.0610352,0.5546875,0.1831055
		s0.2089844,0.2885742,0.2089844,0.4985352C167.9042969,9.8369141,167.8613281,9.9746094,167.7763672,10.0864258z
		 M166.6933594,9.9287109h0.4169922c0.0742188,0,0.1376953-0.0205078,0.1884766-0.0610352S167.375,9.7695312,167.375,9.6948242
		s-0.0253906-0.1308594-0.0761719-0.1679688s-0.1142578-0.0561523-0.1884766-0.0561523h-0.4169922V9.9287109z"/>
</g>
</svg>
